<svg xmlns="http://www.w3.org/2000/svg" width="64.001" height="64">
  <path fill="none" d="M0 0H64.001V64H0z"/>
  <path fill="#6C6C6C" d="M53,14H11c-1.1,0-2,0.9-2,2v6.25h46V16C55,14.9,54.1,14,53,14z"/>
  <linearGradient id="a" gradientUnits="userSpaceOnUse" x1="7.0557" y1="-1459.266" x2="7.0557" y2="-1442.9102" gradientTransform="matrix(1 0 0 -1 24.9448 -1439.1914)">
    <stop offset="0" stop-color="#ddd6d3"/>
    <stop offset=".3881" stop-color="#e9e4e2"/>
    <stop offset="1" stop-color="#e9e4e2"/>
  </linearGradient>
  <path fill="url(#a)" d="M51,22H13V8c0-1.1,0.9-2,2-2h34c1.1,0,2,0.9,2,2V22z"/>
  <linearGradient id="b" gradientUnits="userSpaceOnUse" x1="7.0557" y1="-1485.3409" x2="7.0557" y2="-1463.6801" gradientTransform="matrix(1 0 0 -1 24.9448 -1439.1914)">
    <stop offset="0" stop-color="#003cffff"/>
    <stop offset="1" stop-color="#003cffff"/>
  </linearGradient>
  <path fill="url(#b)" d="M62,47c0,1.1-0.9,2-2,2h-56c-1.1,0-2-0.9-2-2V24c0-1.1,0.9-2,2-2h56c1.1,0,2,0.9,2,2V47z"/>
  <linearGradient id="c" gradientUnits="userSpaceOnUse" x1="7.0557" y1="-1497.1914" x2="7.0557" y2="-1471.8126" gradientTransform="matrix(1 0 0 -1 24.9448 -1439.1914)">
    <stop offset="0" stop-color="#ddd6d3"/>
    <stop offset=".3881" stop-color="#e9e4e2"/>
    <stop offset="1" stop-color="#e9e4e2"/>
  </linearGradient>
  <path fill="url(#c)" d="M55,56c0,1.1-0.9,2-2,2H11c-1.1,0-2-0.9-2-2V40h46V56z"/>
  <path opacity=".5" fill="#B9ADA7" d="M9 40H55V42H9z"/>
  <path fill="#BFCB44" d="M53,27.5c0-0.3,0.2-0.5,0.5-0.5h3c0.3,0,0.5,0.2,0.5,0.5v3c0,0.3-0.2,0.5-0.5,0.5h-3 c-0.3,0-0.5-0.2-0.5-0.5V27.5z"/>
  <path fill="#545454" d="M9 38H55V40H9z"/>
</svg>
