<?xml version="1.0" encoding="UTF-8" standalone="no"?>
<svg
   width="64.001"
   height="64"
   version="1.1"
   id="svg15"
   sodipodi:docname="add_page_portrait.svg"
   inkscape:export-filename="/home/felix/.local/share/QGIS/QGIS3/profiles/default/python/plugins/plot/templates/icons/add_page_portrait.png"
   inkscape:export-xdpi="96"
   inkscape:export-ydpi="96"
   inkscape:version="1.4.2 (ebf0e94, 2025-05-08)"
   xml:space="preserve"
   xmlns:inkscape="http://www.inkscape.org/namespaces/inkscape"
   xmlns:sodipodi="http://sodipodi.sourceforge.net/DTD/sodipodi-0.dtd"
   xmlns="http://www.w3.org/2000/svg"
   xmlns:svg="http://www.w3.org/2000/svg"
   xmlns:rdf="http://www.w3.org/1999/02/22-rdf-syntax-ns#"
   xmlns:cc="http://creativecommons.org/ns#"
   xmlns:dc="http://purl.org/dc/elements/1.1/"><metadata
     id="metadata21"><rdf:RDF><cc:Work
         rdf:about=""><dc:format>image/svg+xml</dc:format><dc:type
           rdf:resource="http://purl.org/dc/dcmitype/StillImage" /></cc:Work></rdf:RDF></metadata><defs
     id="defs19" /><sodipodi:namedview
     pagecolor="#ffffff"
     bordercolor="#666666"
     borderopacity="1"
     objecttolerance="10"
     gridtolerance="10"
     guidetolerance="10"
     inkscape:pageopacity="0"
     inkscape:pageshadow="2"
     inkscape:window-width="2560"
     inkscape:window-height="1369"
     id="namedview17"
     showgrid="false"
     inkscape:zoom="7.3750001"
     inkscape:cx="17.152542"
     inkscape:cy="48.474576"
     inkscape:window-x="1912"
     inkscape:window-y="-8"
     inkscape:window-maximized="1"
     inkscape:current-layer="svg15"
     inkscape:showpageshadow="2"
     inkscape:pagecheckerboard="0"
     inkscape:deskcolor="#d1d1d1" /><path
     fill="none"
     d="M0 0H64.001V64H0z"
     id="path2" /><linearGradient
     id="a"
     gradientUnits="userSpaceOnUse"
     x1="32.001"
     y1="60"
     x2="32.001"
     y2="4.0049"
     gradientTransform="rotate(90,32.001,32.0025)"><stop
       offset="0"
       stop-color="#ddd6d3"
       id="stop4" /><stop
       offset=".3881"
       stop-color="#e9e4e2"
       id="stop6" /><stop
       offset="1"
       stop-color="#e9e4e2"
       id="stop8" /></linearGradient><path
     d="m 55.002943,19.710107 v 39 c 0,1.1 -0.9,2 -2,2 h -42 c -1.0999999,0 -1.9999999,-0.9 -1.9999999,-2 l 0,-51.9950002 c 0,-1.1 0.9,-2 1.9999999,-2 h 29 z"
     id="path11"
     style="opacity:1;fill:#ddd6d3;fill-opacity:1;stroke:#000000;stroke-opacity:0.99500002;stroke-width:1.7;stroke-dasharray:none"
     inkscape:connector-curvature="0" /><path
     d="M 54.312015,19.732426 H 41.891349 c -1.050899,0 -1.910725,-0.859826 -1.910725,-1.910725 V 5.4019897 Z"
     id="path13"
     inkscape:connector-curvature="0"
     style="opacity:0.7;fill:#b9ada7;stroke:#000000;stroke-width:0.955362;stroke-opacity:0.995" /><path
     id="rect1"
     style="fill:#e20074;stroke:#000000;stroke-width:1.7;stroke-dasharray:none;fill-opacity:1"
     d="M 32 13.289062 C 30.497627 13.289062 29.289062 14.497627 29.289062 16 L 29.289062 30.578125 L 14.75 30.568359 C 13.247627 30.567423 12.038045 31.776924 12.037109 33.279297 C 12.036173 34.78167 13.243721 35.991252 14.746094 35.992188 L 29.289062 36.001953 L 29.289062 50.169922 C 29.289062 51.672295 30.497627 52.880859 32 52.880859 C 33.502373 52.880859 34.710938 51.672295 34.710938 50.169922 L 34.710938 36.003906 L 48.916016 36.013672 C 50.418388 36.014608 51.62797 34.805107 51.628906 33.302734 C 51.629842 31.800362 50.422295 30.59078 48.919922 30.589844 L 34.710938 30.580078 L 34.710938 16 C 34.710938 14.497627 33.502373 13.289062 32 13.289062 z " /></svg>
